<svg width="54" height="66" viewBox="0 0 54 66" fill="none" xmlns="http://www.w3.org/2000/svg">
<rect x="1" y="1.5" width="52" height="63" rx="11" fill="#00A2F1"/>
<rect x="1" y="1.5" width="52" height="63" rx="11" stroke="white" stroke-width="2"/>
<path fill-rule="evenodd" clip-rule="evenodd" d="M37 9.5C37.7963 9.5 38.5588 9.81625 39.1212 10.3788C39.6837 10.9412 40 11.7037 40 12.5V34.5C40 35.2963 39.6838 36.0588 39.1212 36.6212C38.5588 37.1837 37.7963 37.5 37 37.5H17C16.2037 37.5 15.4412 37.1838 14.8788 36.6212C14.3163 36.0588 14 35.2963 14 34.5V12.5C14 11.7037 14.3162 10.9412 14.8788 10.3788C15.4412 9.81626 16.2037 9.5 17 9.5H37ZM19.4998 21.9998C18.6724 21.9998 17.9998 22.6724 17.9998 23.4998C17.9998 24.3273 18.6724 24.9998 19.4998 24.9998C20.3273 24.9998 20.9998 24.3273 20.9998 23.4998C20.9998 22.6724 20.3273 21.9998 19.4998 21.9998ZM19.4998 14.9998C18.6724 14.9998 17.9998 15.6724 17.9998 16.4998C17.9998 17.3273 18.6724 17.9998 19.4998 17.9998C20.3273 17.9998 20.9998 17.3273 20.9998 16.4998C20.9998 15.6724 20.3273 14.9998 19.4998 14.9998ZM23.9997 24.5H34.9997C35.5522 24.5 35.9997 24.0525 35.9997 23.5C35.9997 22.9475 35.5522 22.5 34.9997 22.5H23.9997C23.4472 22.5 22.9997 22.9475 22.9997 23.5C22.9997 24.0525 23.4472 24.5 23.9997 24.5ZM23.9997 17.5H34.9997C35.5522 17.5 35.9997 17.0525 35.9997 16.5C35.9997 15.9475 35.5522 15.5 34.9997 15.5H23.9997C23.4472 15.5 22.9997 15.9475 22.9997 16.5C22.9997 17.0525 23.4472 17.5 23.9997 17.5ZM19.4998 29.0002C18.6724 29.0002 17.9998 29.6727 17.9998 30.5002C17.9998 31.3276 18.6724 32.0002 19.4998 32.0002C20.3273 32.0002 20.9998 31.3276 20.9998 30.5002C20.9998 29.6727 20.3273 29.0002 19.4998 29.0002ZM23.9997 31.5002H34.9997C35.5522 31.5002 35.9997 31.0527 35.9997 30.5002C35.9997 29.9476 35.5522 29.5002 34.9997 29.5002H23.9997C23.4472 29.5002 22.9997 29.9476 22.9997 30.5002C22.9997 31.0527 23.4472 31.5002 23.9997 31.5002Z" fill="white"/>
<path d="M16.9216 52.49C16.8616 52.5033 16.7749 52.52 16.6616 52.54C16.5549 52.56 16.4382 52.57 16.3116 52.57C16.0582 52.57 15.8782 52.5233 15.7716 52.43C15.6716 52.3367 15.6216 52.18 15.6216 51.96V46.94C15.6216 46.8133 15.6549 46.7167 15.7216 46.65C15.7882 46.5833 15.8816 46.53 16.0016 46.49C16.2149 46.4167 16.4649 46.3667 16.7516 46.34C17.0449 46.3067 17.3449 46.29 17.6516 46.29C18.5316 46.29 19.1916 46.4733 19.6316 46.84C20.0716 47.2 20.2916 47.7 20.2916 48.34C20.2916 48.76 20.1816 49.1267 19.9616 49.44C19.7416 49.7467 19.4382 49.9833 19.0516 50.15C19.3449 50.53 19.6249 50.8933 19.8916 51.24C20.1649 51.58 20.3682 51.8467 20.5016 52.04C20.4482 52.2133 20.3549 52.35 20.2216 52.45C20.0882 52.5433 19.9416 52.59 19.7816 52.59C19.5749 52.59 19.4149 52.5433 19.3016 52.45C19.1949 52.3567 19.0882 52.23 18.9816 52.07L17.8516 50.38H16.9216V52.49ZM17.7216 49.36C18.1016 49.36 18.4049 49.2767 18.6316 49.11C18.8649 48.9433 18.9816 48.69 18.9816 48.35C18.9816 47.6767 18.5316 47.34 17.6316 47.34C17.4982 47.34 17.3682 47.3467 17.2416 47.36C17.1216 47.3733 17.0082 47.3867 16.9016 47.4V49.36H17.7216ZM25.7898 51.57C25.7898 51.7233 25.7631 51.8533 25.7098 51.96C25.6564 52.06 25.5598 52.15 25.4198 52.23C25.2264 52.35 24.9798 52.45 24.6798 52.53C24.3864 52.61 24.0498 52.65 23.6698 52.65C23.3231 52.65 23.0098 52.61 22.7298 52.53C22.4498 52.4567 22.2098 52.34 22.0098 52.18C21.8098 52.02 21.6564 51.8167 21.5498 51.57C21.4431 51.3233 21.3898 51.03 21.3898 50.69V47.78C21.4431 47.76 21.5198 47.7433 21.6198 47.73C21.7264 47.71 21.8431 47.7 21.9698 47.7C22.2031 47.7 22.3764 47.7433 22.4898 47.83C22.6031 47.91 22.6598 48.0633 22.6598 48.29V50.67C22.6598 51.0167 22.7464 51.2667 22.9198 51.42C23.0998 51.5667 23.3531 51.64 23.6798 51.64C23.8864 51.64 24.0598 51.62 24.1998 51.58C24.3464 51.54 24.4564 51.4967 24.5298 51.45V47.78C24.5831 47.76 24.6598 47.7433 24.7598 47.73C24.8664 47.71 24.9798 47.7 25.0998 47.7C25.3398 47.7 25.5131 47.7433 25.6198 47.83C25.7331 47.91 25.7898 48.0633 25.7898 48.29V51.57ZM28.3838 52.49C28.3305 52.5033 28.2505 52.52 28.1438 52.54C28.0438 52.56 27.9338 52.57 27.8138 52.57C27.5738 52.57 27.3972 52.5267 27.2838 52.44C27.1772 52.3533 27.1238 52.2 27.1238 51.98V46C27.1772 45.98 27.2538 45.9633 27.3538 45.95C27.4605 45.93 27.5738 45.92 27.6938 45.92C27.9338 45.92 28.1072 45.9633 28.2138 46.05C28.3272 46.1367 28.3838 46.29 28.3838 46.51V52.49ZM30.7401 50.7C30.8334 51.04 31.0067 51.2867 31.2601 51.44C31.5134 51.5933 31.8267 51.67 32.2001 51.67C32.4801 51.67 32.7367 51.63 32.9701 51.55C33.2101 51.4633 33.4034 51.3733 33.5501 51.28C33.6434 51.3333 33.7201 51.4067 33.7801 51.5C33.8401 51.5933 33.8701 51.6933 33.8701 51.8C33.8701 51.9333 33.8234 52.0533 33.7301 52.16C33.6434 52.26 33.5201 52.3467 33.3601 52.42C33.2067 52.4933 33.0234 52.55 32.8101 52.59C32.5967 52.63 32.3667 52.65 32.1201 52.65C31.7267 52.65 31.3667 52.5967 31.0401 52.49C30.7201 52.3833 30.4434 52.2233 30.2101 52.01C29.9834 51.79 29.8034 51.52 29.6701 51.2C29.5434 50.88 29.4801 50.5067 29.4801 50.08C29.4801 49.6667 29.5434 49.3067 29.6701 49C29.7967 48.6933 29.9667 48.4367 30.1801 48.23C30.4001 48.0233 30.6534 47.87 30.9401 47.77C31.2267 47.67 31.5301 47.62 31.8501 47.62C32.1767 47.62 32.4767 47.6733 32.7501 47.78C33.0234 47.88 33.2567 48.0233 33.4501 48.21C33.6434 48.39 33.7934 48.61 33.9001 48.87C34.0134 49.1233 34.0701 49.4 34.0701 49.7C34.0701 49.8867 34.0201 50.0267 33.9201 50.12C33.8267 50.2133 33.6934 50.2733 33.5201 50.3L30.7401 50.7ZM31.8501 48.57C31.5234 48.57 31.2501 48.68 31.0301 48.9C30.8101 49.1133 30.6867 49.42 30.6601 49.82L32.8801 49.49C32.8534 49.2433 32.7567 49.03 32.5901 48.85C32.4234 48.6633 32.1767 48.57 31.8501 48.57ZM38.7712 51.16C38.7712 51.6267 38.5978 51.9933 38.2512 52.26C37.9045 52.52 37.3978 52.65 36.7312 52.65C36.4578 52.65 36.2078 52.63 35.9812 52.59C35.7612 52.55 35.5678 52.4933 35.4012 52.42C35.2412 52.34 35.1145 52.2467 35.0212 52.14C34.9345 52.0267 34.8912 51.9033 34.8912 51.77C34.8912 51.6433 34.9178 51.5333 34.9712 51.44C35.0312 51.3467 35.1078 51.27 35.2012 51.21C35.3878 51.33 35.6012 51.4367 35.8412 51.53C36.0878 51.6233 36.3712 51.67 36.6912 51.67C36.9645 51.67 37.1712 51.6267 37.3112 51.54C37.4512 51.4467 37.5212 51.32 37.5212 51.16C37.5212 50.8867 37.3212 50.7067 36.9212 50.62L36.3612 50.49C35.8678 50.3767 35.5012 50.2067 35.2612 49.98C35.0278 49.7533 34.9112 49.45 34.9112 49.07C34.9112 48.6367 35.0845 48.2867 35.4312 48.02C35.7778 47.7467 36.2645 47.61 36.8912 47.61C37.1312 47.61 37.3512 47.63 37.5512 47.67C37.7578 47.7033 37.9345 47.7567 38.0812 47.83C38.2345 47.8967 38.3512 47.98 38.4312 48.08C38.5178 48.1733 38.5612 48.2833 38.5612 48.41C38.5612 48.53 38.5345 48.6367 38.4812 48.73C38.4278 48.8167 38.3645 48.8867 38.2912 48.94C38.2312 48.9 38.1512 48.86 38.0512 48.82C37.9578 48.78 37.8512 48.7433 37.7312 48.71C37.6178 48.6767 37.4945 48.65 37.3612 48.63C37.2345 48.6033 37.1078 48.59 36.9812 48.59C36.7212 48.59 36.5178 48.6333 36.3712 48.72C36.2245 48.8 36.1512 48.9167 36.1512 49.07C36.1512 49.1833 36.1912 49.2767 36.2712 49.35C36.3578 49.4233 36.5045 49.4833 36.7112 49.53L37.2012 49.65C37.7545 49.7767 38.1545 49.9633 38.4012 50.21C38.6478 50.45 38.7712 50.7667 38.7712 51.16Z" fill="white"/>
</svg>
