<svg width="54" height="66" viewBox="0 0 54 66" fill="none" xmlns="http://www.w3.org/2000/svg">
<rect x="1" y="1.5" width="52" height="63" rx="11" fill="#00A2F1"/>
<rect x="1" y="1.5" width="52" height="63" rx="11" stroke="white" stroke-width="2"/>
<path d="M18.2556 32.375V13.625C18.2556 13.004 18.7596 12.5 19.3806 12.5H20.6856C21.3066 12.5 21.8106 13.004 21.8106 13.625V32.375C21.8106 32.996 21.3066 33.5 20.6856 33.5H19.3806C18.7596 33.5 18.2556 32.996 18.2556 32.375ZM35.4148 22.1175L26.1306 12.8333C25.4218 12.1245 24.2098 12.6263 24.2098 13.629V32.1968C24.2098 33.1988 25.4218 33.7013 26.1306 32.9925L35.4148 23.7083C35.8543 23.2688 35.8543 22.5563 35.4148 22.1175Z" fill="white"/>
<path d="M20.0966 47.59C20.4833 47.59 20.7633 47.5133 20.9366 47.36C21.1166 47.2067 21.2066 47.02 21.2066 46.8C21.2066 46.6 21.1366 46.4367 20.9966 46.31C20.8566 46.1833 20.6466 46.0767 20.3666 45.99L19.7266 45.79C19.3933 45.6833 19.1 45.5567 18.8466 45.41C18.5933 45.2633 18.3966 45.08 18.2566 44.86C18.1166 44.64 18.0466 44.3633 18.0466 44.03C18.0466 43.49 18.25 43.0633 18.6566 42.75C19.0633 42.43 19.62 42.27 20.3266 42.27C20.7 42.27 21.0333 42.3067 21.3266 42.38C21.62 42.4533 21.85 42.56 22.0166 42.7C22.1833 42.8333 22.2666 42.9933 22.2666 43.18C22.2666 43.3067 22.2333 43.42 22.1666 43.52C22.1066 43.62 22.03 43.7033 21.9366 43.77C21.7766 43.6567 21.5633 43.5567 21.2966 43.47C21.0366 43.3833 20.75 43.34 20.4366 43.34C20.0966 43.34 19.8366 43.4033 19.6566 43.53C19.4766 43.6567 19.3866 43.8233 19.3866 44.03C19.3866 44.19 19.4466 44.3233 19.5666 44.43C19.6933 44.53 19.89 44.62 20.1566 44.7L20.7166 44.88C21.3033 45.0533 21.7533 45.29 22.0666 45.59C22.3866 45.89 22.5466 46.2967 22.5466 46.81C22.5466 47.3567 22.3366 47.8033 21.9166 48.15C21.5033 48.49 20.9066 48.66 20.1266 48.66C19.72 48.66 19.3566 48.6133 19.0366 48.52C18.7233 48.4333 18.4766 48.3133 18.2966 48.16C18.1166 48 18.0266 47.8267 18.0266 47.64C18.0266 47.48 18.07 47.3467 18.1566 47.24C18.25 47.1333 18.3566 47.0533 18.4766 47C18.6433 47.1467 18.8633 47.2833 19.1366 47.41C19.4166 47.53 19.7366 47.59 20.0966 47.59ZM25.4175 46.52L24.5375 45.93L26.7975 43.68C27.0575 43.68 27.2642 43.7367 27.4175 43.85C27.5708 43.9633 27.6475 44.1067 27.6475 44.28C27.6475 44.4333 27.5975 44.5667 27.4975 44.68C27.3975 44.7933 27.2442 44.9367 27.0375 45.11L25.4175 46.52ZM24.5675 46.12L25.5475 45.65L27.8675 47.84C27.8475 48.0733 27.7775 48.2567 27.6575 48.39C27.5442 48.5167 27.3808 48.58 27.1675 48.58C27.0142 48.58 26.8742 48.54 26.7475 48.46C26.6208 48.38 26.4842 48.2533 26.3375 48.08L24.5675 46.12ZM23.5875 45.84L24.8575 45.9V48.49C24.8042 48.5033 24.7242 48.52 24.6175 48.54C24.5175 48.56 24.4075 48.57 24.2875 48.57C24.0475 48.57 23.8708 48.5267 23.7575 48.44C23.6442 48.3533 23.5875 48.2 23.5875 47.98V45.84ZM24.8575 46.55L23.5875 46.49V42C23.6408 41.98 23.7208 41.9633 23.8275 41.95C23.9342 41.93 24.0475 41.92 24.1675 41.92C24.4075 41.92 24.5808 41.9633 24.6875 42.05C24.8008 42.13 24.8575 42.2833 24.8575 42.51V46.55ZM28.7421 42.35C28.7421 42.15 28.8088 41.9833 28.9421 41.85C29.0821 41.71 29.2588 41.64 29.4721 41.64C29.6854 41.64 29.8588 41.71 29.9921 41.85C30.1321 41.9833 30.2021 42.15 30.2021 42.35C30.2021 42.55 30.1321 42.72 29.9921 42.86C29.8588 42.9933 29.6854 43.06 29.4721 43.06C29.2588 43.06 29.0821 42.9933 28.9421 42.86C28.8088 42.72 28.7421 42.55 28.7421 42.35ZM28.8421 45.86H30.1021V48.49C30.0488 48.5033 29.9688 48.52 29.8621 48.54C29.7621 48.56 29.6521 48.57 29.5321 48.57C29.2921 48.57 29.1154 48.5267 29.0021 48.44C28.8954 48.3533 28.8421 48.2 28.8421 47.98V45.86ZM30.1021 46.51H28.8421V43.8C28.8954 43.7867 28.9721 43.77 29.0721 43.75C29.1788 43.73 29.2921 43.72 29.4121 43.72C29.6521 43.72 29.8254 43.7633 29.9321 43.85C30.0454 43.93 30.1021 44.0833 30.1021 44.31V46.51ZM33.6593 48.64C33.3993 48.64 33.1593 48.6067 32.9393 48.54C32.726 48.4733 32.5526 48.3967 32.4193 48.31V47.21C32.5393 47.3167 32.686 47.4133 32.8593 47.5C33.0326 47.5867 33.236 47.63 33.4693 47.63C33.8693 47.63 34.1826 47.5067 34.4093 47.26C34.636 47.0067 34.7493 46.6233 34.7493 46.11C34.7493 45.75 34.696 45.4633 34.5893 45.25C34.4826 45.03 34.336 44.87 34.1493 44.77C33.9626 44.67 33.746 44.62 33.4993 44.62C33.3193 44.62 33.1626 44.6433 33.0293 44.69C32.896 44.7367 32.776 44.7867 32.6693 44.84V47.98H31.4093V44.71C31.4093 44.55 31.4393 44.42 31.4993 44.32C31.566 44.22 31.6693 44.1267 31.8093 44.04C32.0026 43.92 32.2426 43.82 32.5293 43.74C32.8226 43.6533 33.146 43.61 33.4993 43.61C33.9926 43.61 34.4293 43.7 34.8093 43.88C35.196 44.0533 35.4993 44.3233 35.7193 44.69C35.9393 45.0567 36.0493 45.53 36.0493 46.11C36.0493 46.6633 35.946 47.13 35.7393 47.51C35.5326 47.8833 35.2493 48.1667 34.8893 48.36C34.5293 48.5467 34.1193 48.64 33.6593 48.64ZM32.1093 50.37C31.8693 50.37 31.6926 50.3267 31.5793 50.24C31.466 50.1533 31.4093 50 31.4093 49.78V47.63L32.6793 47.64V50.29C32.626 50.3033 32.546 50.32 32.4393 50.34C32.3393 50.36 32.2293 50.37 32.1093 50.37Z" fill="white"/>
</svg>
