<svg width="54" height="66" viewBox="0 0 54 66" fill="none" xmlns="http://www.w3.org/2000/svg">
<rect x="1" y="1.5" width="52" height="63" rx="11" fill="#00A2F1"/>
<rect x="1" y="1.5" width="52" height="63" rx="11" stroke="white" stroke-width="2"/>
<path d="M32.1432 37.6667C32.1432 37.8877 32.0529 38.0996 31.8922 38.2559C31.7314 38.4122 31.5134 38.4999 31.2861 38.4999H22.7143C22.487 38.4999 22.2689 38.4122 22.1082 38.2559C21.9474 38.0996 21.8571 37.8877 21.8571 37.6667C21.8571 37.4457 21.9474 37.2337 22.1082 37.0775C22.2689 36.9212 22.487 36.8334 22.7143 36.8334H31.2861C31.5134 36.8334 31.7314 36.9212 31.8922 37.0775C32.0529 37.2337 32.1432 37.4457 32.1432 37.6667ZM36.4291 24.3345C36.4328 25.7236 36.11 27.0952 35.4853 28.3445C34.8607 29.5938 33.9506 30.6879 32.8247 31.5433C32.6142 31.7001 32.4433 31.9017 32.3252 32.1326C32.2071 32.3635 32.1449 32.6176 32.1432 32.8754V33.5004C32.1432 33.9424 31.9626 34.3663 31.6411 34.6788C31.3196 34.9913 30.8836 35.1669 30.4289 35.1669H23.5715C23.1168 35.1669 22.6808 34.9913 22.3592 34.6788C22.0377 34.3663 21.8571 33.9424 21.8571 33.5004V32.8754C21.857 32.6207 21.7967 32.3693 21.681 32.1407C21.5652 31.9121 21.3972 31.7124 21.1896 31.5568C20.0665 30.7065 19.1571 29.619 18.5302 28.3766C17.9033 27.1342 17.5754 25.7694 17.5712 24.3856C17.5434 19.4214 21.6707 15.2874 26.773 15.1687C28.0302 15.1392 29.2808 15.3545 30.4511 15.802C31.6214 16.2494 32.6879 16.9199 33.5876 17.774C34.4874 18.628 35.2023 19.6485 35.6903 20.7751C36.1783 21.9018 36.4295 23.112 36.4291 24.3345ZM32.9886 23.3617C32.7664 22.1548 32.169 21.0431 31.2771 20.1763C30.3852 19.3094 29.2414 18.729 27.9999 18.5132C27.8888 18.495 27.7752 18.4982 27.6655 18.5227C27.5558 18.5472 27.4521 18.5925 27.3603 18.6559C27.2686 18.7194 27.1906 18.7998 27.1309 18.8925C27.0711 18.9852 27.0307 19.0885 27.012 19.1964C26.9933 19.3044 26.9966 19.4148 27.0218 19.5215C27.047 19.6281 27.0935 19.7289 27.1588 19.8181C27.2241 19.9073 27.3068 19.9831 27.4022 20.0412C27.4976 20.0993 27.6038 20.1386 27.7149 20.1568C29.4903 20.4474 30.9968 21.9118 31.2978 23.6408C31.3318 23.8349 31.4353 24.011 31.59 24.138C31.7448 24.265 31.9407 24.3346 32.1432 24.3345C32.1917 24.3342 32.24 24.3304 32.2879 24.3231C32.5119 24.2859 32.7116 24.1637 32.843 23.9834C32.9744 23.8032 33.0268 23.5795 32.9886 23.3617Z" fill="white"/>
<path d="M21.9475 11.3732C21.9979 11.4711 22.0676 11.5585 22.1527 11.6302C22.2378 11.7019 22.3366 11.7567 22.4434 11.7913C22.5503 11.8259 22.6631 11.8398 22.7755 11.832C22.8878 11.8242 22.9975 11.795 23.0982 11.7461C23.199 11.6971 23.2888 11.6293 23.3626 11.5466C23.4364 11.4639 23.4927 11.3679 23.5284 11.264C23.564 11.1601 23.5782 11.0504 23.5702 10.9412C23.5622 10.832 23.5322 10.7254 23.4818 10.6274L22.6247 8.96091C22.5229 8.76312 22.3445 8.61272 22.1287 8.54279C21.9129 8.47286 21.6774 8.48913 21.4739 8.58803C21.2704 8.68692 21.1157 8.86034 21.0438 9.07013C20.9718 9.27991 20.9886 9.50889 21.0903 9.70668L21.9475 11.3732ZM15.4737 15.9124L17.188 16.7456C17.3913 16.8445 17.6267 16.8609 17.8425 16.791C18.0582 16.7212 18.2365 16.5709 18.3382 16.3733C18.44 16.1756 18.4568 15.9468 18.3849 15.7371C18.3131 15.5274 18.1585 15.354 17.9552 15.2551L16.2408 14.4219C16.1402 14.3729 16.0305 14.3437 15.9183 14.3359C15.806 14.3281 15.6932 14.3419 15.5864 14.3765C15.4796 14.4111 15.3808 14.4658 15.2958 14.5374C15.2107 14.6091 15.141 14.6964 15.0906 14.7942C15.0402 14.8921 15.0102 14.9987 15.0022 15.1078C14.9942 15.217 15.0083 15.3266 15.0439 15.4304C15.0795 15.5343 15.1357 15.6303 15.2095 15.713C15.2832 15.7956 15.373 15.8634 15.4737 15.9124ZM36.4295 16.8331C36.5622 16.8332 36.6932 16.8032 36.812 16.7456L38.5263 15.9124C38.627 15.8634 38.7168 15.7956 38.7905 15.713C38.8643 15.6303 38.9205 15.5343 38.9561 15.4304C38.9917 15.3266 39.0058 15.217 38.9978 15.1078C38.9898 14.9987 38.9598 14.8921 38.9094 14.7942C38.859 14.6964 38.7893 14.6091 38.7042 14.5374C38.6192 14.4658 38.5204 14.4111 38.4136 14.3765C38.3068 14.3419 38.194 14.3281 38.0817 14.3359C37.9695 14.3437 37.8598 14.3729 37.7592 14.4219L36.0448 15.2551C35.8723 15.3393 35.7341 15.4776 35.6525 15.6476C35.5709 15.8176 35.5507 16.0094 35.5952 16.192C35.6397 16.3746 35.7463 16.5372 35.8977 16.6535C36.0491 16.7699 36.2365 16.8332 36.4295 16.8331ZM30.9028 11.7461C31.0036 11.7951 31.1133 11.8244 31.2256 11.8322C31.338 11.84 31.4508 11.8262 31.5577 11.7915C31.6646 11.7569 31.7634 11.7021 31.8485 11.6303C31.9336 11.5586 32.0033 11.4712 32.0536 11.3732L32.9108 9.70668C33.0125 9.50889 33.0292 9.27991 32.9573 9.07013C32.8854 8.86034 32.7306 8.68692 32.5272 8.58803C32.3237 8.48913 32.0882 8.47286 31.8724 8.54279C31.6565 8.61272 31.4782 8.76312 31.3764 8.96091L30.5192 10.6274C30.4688 10.7254 30.4387 10.832 30.4307 10.9412C30.4227 11.0505 30.4369 11.1602 30.4725 11.2641C30.5081 11.3679 30.5645 11.464 30.6383 11.5467C30.7121 11.6294 30.802 11.6972 30.9028 11.7461Z" fill="white"/>
<path d="M17.322 52.49C17.262 52.5033 17.1753 52.52 17.062 52.54C16.9553 52.56 16.8386 52.57 16.712 52.57C16.4586 52.57 16.2786 52.5233 16.172 52.43C16.072 52.3367 16.022 52.18 16.022 51.96V46.43C16.0753 46.4167 16.1586 46.4 16.272 46.38C16.392 46.36 16.5086 46.35 16.622 46.35C16.862 46.35 17.0386 46.3933 17.152 46.48C17.2653 46.5667 17.322 46.7267 17.322 46.96V48.93H19.822V46.43C19.8753 46.4167 19.9586 46.4 20.072 46.38C20.192 46.36 20.3086 46.35 20.422 46.35C20.662 46.35 20.8386 46.3967 20.952 46.49C21.0653 46.5767 21.122 46.7367 21.122 46.97V52.49C21.062 52.5033 20.9753 52.52 20.862 52.54C20.7553 52.56 20.6386 52.57 20.512 52.57C20.2586 52.57 20.0786 52.5233 19.972 52.43C19.872 52.3367 19.822 52.18 19.822 51.96V49.97H17.322V52.49ZM22.5628 47.8C22.6161 47.7867 22.6928 47.77 22.7928 47.75C22.8995 47.73 23.0128 47.72 23.1328 47.72C23.3728 47.72 23.5461 47.7633 23.6528 47.85C23.7661 47.9367 23.8228 48.09 23.8228 48.31V52.49C23.7695 52.5033 23.6895 52.52 23.5828 52.54C23.4828 52.56 23.3728 52.57 23.2528 52.57C23.0128 52.57 22.8361 52.5267 22.7228 52.44C22.6161 52.3533 22.5628 52.2 22.5628 51.98V47.8ZM22.4628 46.35C22.4628 46.1567 22.5295 45.9933 22.6628 45.86C22.8028 45.72 22.9795 45.65 23.1928 45.65C23.4061 45.65 23.5795 45.72 23.7128 45.86C23.8461 45.9933 23.9128 46.1567 23.9128 46.35C23.9128 46.55 23.8461 46.72 23.7128 46.86C23.5795 46.9933 23.4061 47.06 23.1928 47.06C22.9795 47.06 22.8028 46.9933 22.6628 46.86C22.5295 46.72 22.4628 46.55 22.4628 46.35ZM28.27 49.45C28.27 49.1633 28.1867 48.9533 28.02 48.82C27.86 48.6867 27.64 48.62 27.36 48.62C27.1667 48.62 26.9867 48.6433 26.82 48.69C26.66 48.7367 26.52 48.7967 26.4 48.87V52.49C26.34 52.5033 26.26 52.52 26.16 52.54C26.06 52.56 25.9467 52.57 25.82 52.57C25.5867 52.57 25.4133 52.5267 25.3 52.44C25.1867 52.3533 25.13 52.2 25.13 51.98V48.77C25.13 48.61 25.1633 48.48 25.23 48.38C25.2967 48.28 25.4 48.1833 25.54 48.09C25.7333 47.9567 25.99 47.8467 26.31 47.76C26.63 47.6667 26.9833 47.62 27.37 47.62C28.0567 47.62 28.5867 47.7733 28.96 48.08C29.34 48.38 29.53 48.8233 29.53 49.41V52.49C29.4767 52.5033 29.3967 52.52 29.29 52.54C29.19 52.56 29.08 52.57 28.96 52.57C28.72 52.57 28.5433 52.5267 28.43 52.44C28.3233 52.3533 28.27 52.2 28.27 51.98V49.45ZM32.0738 51.03C32.0738 51.2433 32.1372 51.3967 32.2638 51.49C32.3972 51.5833 32.5805 51.63 32.8138 51.63C32.9272 51.63 33.0405 51.6167 33.1538 51.59C33.2738 51.5633 33.3805 51.53 33.4738 51.49C33.5272 51.5433 33.5705 51.61 33.6038 51.69C33.6438 51.7633 33.6638 51.85 33.6638 51.95C33.6638 52.15 33.5738 52.3167 33.3938 52.45C33.2138 52.5767 32.9238 52.64 32.5238 52.64C31.9972 52.64 31.5805 52.5233 31.2738 52.29C30.9738 52.05 30.8238 51.6567 30.8238 51.11V46.52C30.8772 46.5067 30.9538 46.49 31.0538 46.47C31.1605 46.45 31.2738 46.44 31.3938 46.44C31.6272 46.44 31.7972 46.4833 31.9038 46.57C32.0172 46.6567 32.0738 46.81 32.0738 47.03V47.86H33.5438C33.5772 47.9133 33.6072 47.9833 33.6338 48.07C33.6605 48.1567 33.6738 48.25 33.6738 48.35C33.6738 48.5233 33.6338 48.65 33.5538 48.73C33.4738 48.81 33.3672 48.85 33.2338 48.85H32.0738V51.03ZM38.3708 51.16C38.3708 51.6267 38.1974 51.9933 37.8508 52.26C37.5041 52.52 36.9974 52.65 36.3308 52.65C36.0574 52.65 35.8074 52.63 35.5808 52.59C35.3608 52.55 35.1674 52.4933 35.0008 52.42C34.8408 52.34 34.7141 52.2467 34.6208 52.14C34.5341 52.0267 34.4908 51.9033 34.4908 51.77C34.4908 51.6433 34.5174 51.5333 34.5708 51.44C34.6308 51.3467 34.7074 51.27 34.8008 51.21C34.9874 51.33 35.2008 51.4367 35.4408 51.53C35.6874 51.6233 35.9708 51.67 36.2908 51.67C36.5641 51.67 36.7708 51.6267 36.9108 51.54C37.0508 51.4467 37.1208 51.32 37.1208 51.16C37.1208 50.8867 36.9208 50.7067 36.5208 50.62L35.9608 50.49C35.4674 50.3767 35.1008 50.2067 34.8608 49.98C34.6274 49.7533 34.5108 49.45 34.5108 49.07C34.5108 48.6367 34.6841 48.2867 35.0308 48.02C35.3774 47.7467 35.8641 47.61 36.4908 47.61C36.7308 47.61 36.9508 47.63 37.1508 47.67C37.3574 47.7033 37.5341 47.7567 37.6808 47.83C37.8341 47.8967 37.9508 47.98 38.0308 48.08C38.1174 48.1733 38.1608 48.2833 38.1608 48.41C38.1608 48.53 38.1341 48.6367 38.0808 48.73C38.0274 48.8167 37.9641 48.8867 37.8908 48.94C37.8308 48.9 37.7508 48.86 37.6508 48.82C37.5574 48.78 37.4508 48.7433 37.3308 48.71C37.2174 48.6767 37.0941 48.65 36.9608 48.63C36.8341 48.6033 36.7074 48.59 36.5808 48.59C36.3208 48.59 36.1174 48.6333 35.9708 48.72C35.8241 48.8 35.7508 48.9167 35.7508 49.07C35.7508 49.1833 35.7908 49.2767 35.8708 49.35C35.9574 49.4233 36.1041 49.4833 36.3108 49.53L36.8008 49.65C37.3541 49.7767 37.7541 49.9633 38.0008 50.21C38.2474 50.45 38.3708 50.7667 38.3708 51.16Z" fill="white"/>
</svg>
