<svg width="554" height="145" viewBox="0 0 554 145" fill="none" xmlns="http://www.w3.org/2000/svg">
<g filter="url(#filter0_d_3_10543)">
<path d="M4.00001 60C4.00001 31.7157 4 17.5736 12.7868 8.7868C21.5736 -3.07266e-06 35.7157 -5.54535e-06 64 -1.04907e-05L490 -8.49749e-05C518.284 -8.99203e-05 532.426 -9.2393e-05 541.213 8.7867C550 17.5735 550 31.7156 550 59.9999L550 76.9999C550 105.284 550 119.426 541.213 128.213C532.426 137 518.284 137 490 137L64 137C35.7158 137 21.5736 137 12.7868 128.213C4.00002 119.426 4.00002 105.284 4.00001 77L4.00001 60Z" fill="#D9D9D9"/>
<path d="M4.00001 60C4.00001 31.7157 4 17.5736 12.7868 8.7868C21.5736 -3.07266e-06 35.7157 -5.54535e-06 64 -1.04907e-05L490 -8.49749e-05C518.284 -8.99203e-05 532.426 -9.2393e-05 541.213 8.7867C550 17.5735 550 31.7156 550 59.9999L550 76.9999C550 105.284 550 119.426 541.213 128.213C532.426 137 518.284 137 490 137L64 137C35.7158 137 21.5736 137 12.7868 128.213C4.00002 119.426 4.00002 105.284 4.00001 77L4.00001 60Z" fill="white"/>
<path d="M4.50001 60C4.50001 45.8437 4.50107 35.2768 5.5939 27.1485C6.68479 19.0345 8.85534 13.4254 13.1404 9.14035C17.4254 4.85533 23.0345 2.68478 31.1485 1.59389C39.2768 0.501056 49.8437 0.499992 64 0.49999L490 0.499915C504.156 0.499913 514.723 0.500973 522.852 1.5938C530.966 2.68469 536.575 4.85524 540.86 9.14026C545.145 13.4253 547.315 19.0344 548.406 27.1484C549.499 35.2767 549.5 45.8436 549.5 59.9999L549.5 76.9999C549.5 91.1562 549.499 101.723 548.406 109.851C547.315 117.965 545.145 123.575 540.86 127.86C536.575 132.145 530.966 134.315 522.852 135.406C514.723 136.499 504.156 136.5 490 136.5L64 136.5C49.8438 136.5 39.2768 136.499 31.1485 135.406C23.0345 134.315 17.4254 132.145 13.1404 127.86C8.85536 123.575 6.68481 117.966 5.59391 109.852C4.50108 101.723 4.50002 91.1563 4.50001 77L4.50001 60Z" stroke="#E7E7E7"/>
</g>
<defs>
<filter id="filter0_d_3_10543" x="0" y="-9.15527e-05" width="554" height="145" filterUnits="userSpaceOnUse" color-interpolation-filters="sRGB">
<feFlood flood-opacity="0" result="BackgroundImageFix"/>
<feColorMatrix in="SourceAlpha" type="matrix" values="0 0 0 0 0 0 0 0 0 0 0 0 0 0 0 0 0 0 127 0" result="hardAlpha"/>
<feOffset dy="4"/>
<feGaussianBlur stdDeviation="2"/>
<feComposite in2="hardAlpha" operator="out"/>
<feColorMatrix type="matrix" values="0 0 0 0 0.683333 0 0 0 0 0.683333 0 0 0 0 0.683333 0 0 0 0.25 0"/>
<feBlend mode="normal" in2="BackgroundImageFix" result="effect1_dropShadow_3_10543"/>
<feBlend mode="normal" in="SourceGraphic" in2="effect1_dropShadow_3_10543" result="shape"/>
</filter>
</defs>
</svg>
