<svg width="26" height="28" viewBox="0 0 26 28" fill="none" xmlns="http://www.w3.org/2000/svg">
<path fill-rule="evenodd" clip-rule="evenodd" d="M23 0C23.7963 0 24.5588 0.31625 25.1212 0.878752C25.6837 1.44125 26 2.20374 26 3V25C26 25.7963 25.6838 26.5588 25.1212 27.1212C24.5588 27.6837 23.7963 28 23 28H3C2.20374 28 1.44125 27.6838 0.878752 27.1212C0.316256 26.5588 0 25.7963 0 25V3C0 2.20374 0.31625 1.44125 0.878752 0.878752C1.44125 0.316256 2.20374 0 3 0H23ZM5.49984 12.4998C4.67235 12.4998 3.99984 13.1724 3.99984 13.9998C3.99984 14.8273 4.67235 15.4998 5.49984 15.4998C6.32733 15.4998 6.99984 14.8273 6.99984 13.9998C6.99984 13.1724 6.32733 12.4998 5.49984 12.4998ZM5.49984 5.49984C4.67235 5.49984 3.99984 6.17235 3.99984 6.99984C3.99984 7.82733 4.67235 8.49984 5.49984 8.49984C6.32733 8.49984 6.99984 7.82733 6.99984 6.99984C6.99984 6.17235 6.32733 5.49984 5.49984 5.49984ZM9.99968 15H20.9997C21.5522 15 21.9997 14.5525 21.9997 14C21.9997 13.4475 21.5522 13 20.9997 13H9.99968C9.44717 13 8.99968 13.4475 8.99968 14C8.99968 14.5525 9.44717 15 9.99968 15ZM9.99968 8H20.9997C21.5522 8 21.9997 7.55251 21.9997 7C21.9997 6.44749 21.5522 6 20.9997 6H9.99968C9.44717 6 8.99968 6.44749 8.99968 7C8.99968 7.55251 9.44717 8 9.99968 8ZM5.49984 19.5002C4.67235 19.5002 3.99984 20.1727 3.99984 21.0002C3.99984 21.8276 4.67235 22.5002 5.49984 22.5002C6.32733 22.5002 6.99984 21.8276 6.99984 21.0002C6.99984 20.1727 6.32733 19.5002 5.49984 19.5002ZM9.99968 22.0002H20.9997C21.5522 22.0002 21.9997 21.5527 21.9997 21.0002C21.9997 20.4476 21.5522 20.0002 20.9997 20.0002H9.99968C9.44717 20.0002 8.99968 20.4476 8.99968 21.0002C8.99968 21.5527 9.44717 22.0002 9.99968 22.0002Z" fill="white"/>
</svg>
