<svg width="46" height="69" viewBox="0 0 46 69" fill="none" xmlns="http://www.w3.org/2000/svg">
<g filter="url(#filter0_d_3_10532)">
<path d="M42 0H4C2.11438 0 1.17157 0 0.585786 0.585786C0 1.17157 0 2.11438 0 4V58.4007C0 61.7387 0 63.4078 1.06844 63.9701C2.13688 64.5325 3.51272 63.5877 6.26439 61.698L20.7356 51.7602C21.8315 51.0076 22.3794 50.6313 23 50.6313C23.6206 50.6313 24.1685 51.0076 25.2644 51.7602L39.7356 61.698C42.4873 63.5877 43.8631 64.5325 44.9316 63.9701C46 63.4078 46 61.7387 46 58.4007V4C46 2.11438 46 1.17157 45.4142 0.585786C44.8284 0 43.8856 0 42 0Z" fill="#00A2F1"/>
</g>
<defs>
<filter id="filter0_d_3_10532" x="0" y="0" width="46" height="68.1314" filterUnits="userSpaceOnUse" color-interpolation-filters="sRGB">
<feFlood flood-opacity="0" result="BackgroundImageFix"/>
<feColorMatrix in="SourceAlpha" type="matrix" values="0 0 0 0 0 0 0 0 0 0 0 0 0 0 0 0 0 0 127 0" result="hardAlpha"/>
<feOffset dy="4"/>
<feComposite in2="hardAlpha" operator="out"/>
<feColorMatrix type="matrix" values="0 0 0 0 0.0862745 0 0 0 0 0.32549 0 0 0 0 0.533333 0 0 0 1 0"/>
<feBlend mode="normal" in2="BackgroundImageFix" result="effect1_dropShadow_3_10532"/>
<feBlend mode="normal" in="SourceGraphic" in2="effect1_dropShadow_3_10532" result="shape"/>
</filter>
</defs>
</svg>
